<svg xmlns="http://www.w3.org/2000/svg" xmlns:xlink="http://www.w3.org/1999/xlink" width="1920" height="1000" viewBox="0 0 1920 1000"><defs><path id="a" d="M0 0h1920v183.168l-757.95 786.236a100 100 0 01-71.994 30.596H0V0z"/></defs><g fill="none" fill-rule="evenodd"><path fill="#44CDBE" d="M0 0h1920v183.168l-757.95 786.236a100 100 0 01-71.994 30.596H0V0z"/><mask id="b" fill="#fff"><use xlink:href="#a"/></mask><circle cx="1598" cy="500" r="1253" stroke="#70DFD2" mask="url(#b)" opacity=".5"/><circle cx="1598" cy="500" r="919" stroke="#70DFD2" mask="url(#b)" opacity=".5"/><circle cx="1598.5" cy="499.5" r="626.5" stroke="#70DFD2" mask="url(#b)" opacity=".5"/><circle cx="758" cy="129" r="12" fill="#59D9CB" mask="url(#b)"/><circle cx="999" cy="322" r="12" fill="#59D9CB" mask="url(#b)"/><circle cx="698" cy="679" r="12" fill="#59D9CB" mask="url(#b)"/><circle cx="379" cy="209" r="12" fill="#59D9CB" mask="url(#b)"/><text fill="#59D9CB" font-family="GothamPro-Black, Gotham Pro" font-size="12" font-weight="700" letter-spacing="2" mask="url(#b)"><tspan x="402.376" y="213">РАБОТ</tspan> <tspan x="455.084" y="213">А</tspan></text><text fill="#59D9CB" font-family="GothamPro-Black, Gotham Pro" font-size="12" font-weight="700" letter-spacing="2" mask="url(#b)"><tspan x="780.384" y="133">КАРЬЕРА</tspan></text><text fill="#59D9CB" font-family="GothamPro-Black, Gotham Pro" font-size="12" font-weight="700" letter-spacing="2" mask="url(#b)"><tspan x="1023.41" y="326">КВАЛИФИКАЦИЯ</tspan></text><text fill="#59D9CB" font-family="GothamPro-Black, Gotham Pro" font-size="12" font-weight="700" letter-spacing="2" mask="url(#b)"><tspan x="718.104" y="682">УСПЕХ</tspan></text></g></svg>