<svg version="1.1" id="Слой_1" xmlns="http://www.w3.org/2000/svg" x="0" y="0" viewBox="0 0 903 679.6" xml:space="preserve"><style>.st0{fill:#152a3b}.st1{fill:#ff8c69}.st3{fill:#ffd8bc}.st4{fill:#d0f4ed}.st5{fill:#79e6d9}.st7{fill:#34bfab}.st11{fill:#0f1d29}.st12{fill:#ffceab}</style><path id="Fill-6" class="st0" d="M345.5 68.4s-8.8-12 1.4-34.3c10.3-22.3 11.7-31.3 38.8-29.2 8.4.6 13.1 6.6 7.3 17.5-4.1 7.7 2.7 19.9 2.9 26.5.7 18.2-11.3 20.8-19.2 19.3-26.1-4.6-31.2.2-31.2.2"/><path id="Fill-8" class="st1" d="M380.9 50.6s17.7 13.4 34.9 16.2c25.7 4.1 31.4 3.5 37.8 1.4 6.4-2.1 9 1.3 8.2 5-.9 3.7 1.1 18.9-31.1 21.9-32.3 3.1-58-6.8-56.6-20.2 1.3-13.5 6.8-24.3 6.8-24.3"/><path id="Fill-10" class="st1" d="M342.4 52.6S325 88.5 325 109.7c0 21.9 24.5 32.9 24.5 32.9s12-59.7 10.3-69.1c-1.6-9.4-17.4-20.9-17.4-20.9"/><path id="Fill-12" class="st1" d="M402.1 115.5c-30.6 3.5-54.1-2.6-54.1-2.6s-15-51.6-6.1-59c4.7-3.9 12.6-5.3 21.3-5.3h.2c1.7 0 3.5.1 5.2.2h.1c3.2.2 6.5.6 9.7 1.1.4.1.7.1 1.1.2 5.8.9 17 17 17 17s2.3-5.4.8 2.7c-8.8 45.5 35.3 42.1 4.8 45.7"/><path id="Fill-14" d="M376.2 42.1s-2.1 4.8 0 7.5 0 8.2-4.8 8-10.2-4-10.3-7.7 4.2-12.2 4.2-12.2l10.9 4.4z" fill="#ffc09c"/><path id="Fill-16" class="st3" d="M361.6 14.3s-5.4 13.6 3.6 24.8c4.2 5.3 9.2 4.7 15.2-2.1 1.7-1.9 3.2-4.4 4.2-8.5.7-3.1 1.1-5.6 1.2-7.3.3-3.9.6-5.9-1.2-8.7-3.6-5.8-17.7-10.4-23 1.8"/><path id="Fill-18" class="st0" d="M387.5 10.2s.3-8.6-14.1-10.1c-7.7-.8-13.8 1.5-23.2 15.4-1.4 2.1-9.2 8.1-9.2 8.1s-16.3 8.3-11.6 20.4c4.9 12.5-6.9 12.5-7.2 20.9-.4 11.7 24.9 19.6 34.3-12.7 16.8-57.8 31-42 31-42"/><path id="Fill-21" class="st0" d="M384 6s1.1 10.3-8.4 13c0 0-4 .4-4.5 3.2-.5 2.7.8 7.5-2.5 13-3.3 5.6-5.2 2.6-8.9 13.2-2.9 8.4-9.6-.5-2.5-13.3 7-12.9 11-32.5 26.8-29.1"/><path id="Fill-23" class="st4" d="M903 657.1c0 12.4-202.1 22.5-451.5 22.5S0 669.5 0 657.1s202.1-22.5 451.5-22.5S903 644.7 903 657.1"/><path id="Fill-25" class="st5" d="M0 657.6h903s-7.5-57.1-54.5-54.6-25.5-61-84.7-121.2c-43.6-44.4-136.9-45.3-191 13.1-54.1 58.3-307.1-17.4-380.8 27s-44.6 86.4-98.2 79S4.5 628 0 657.6"/><path id="Fill-27" d="M680 654.6v-535c0-2.2-1.8-4-4.1-4H281.1c-2.2 0-4.1 1.8-4.1 4v535c0 2.2 1.8 4 4.1 4H676c2.2 0 4-1.8 4-4" fill="#44cdbe"/><path id="Fill-29" class="st7" d="M301 638.6h359v-499H301z"/><path id="Fill-31" fill="#fff" d="M302 633.6h353v-494H302z"/><path id="Fill-32" class="st5" d="M353 313.6h209v-35H353z"/><path id="Fill-33" class="st5" d="M353 400.6h209v-35H353z"/><path id="Fill-34" class="st5" d="M592 400.6h35v-35h-35z"/><path id="Fill-35" class="st5" d="M353 486.6h209v-35H353z"/><path id="Fill-36" class="st5" d="M592 486.6h35v-35h-35z"/><path id="Fill-37" class="st5" d="M353 572.6h209v-35H353z"/><path id="Fill-38" class="st5" d="M592 572.6h35v-35h-35z"/><path id="Fill-39" class="st7" d="M478.5 97.8c-3.5 0-6.4-2.8-6.4-6.3s2.9-6.3 6.4-6.3 6.4 2.8 6.4 6.3-2.9 6.3-6.4 6.3zm71.8 16.2l-.7-3.3-.3-1.6-1.1-5.3-4.7-23.5c-1.2-5.9-4.3-9.8-7.9-9.8H421.4c-3.5 0-6.7 3.9-7.9 9.8l-4.7 23.5-1.1 5.3-.3 1.6-.7 3.3-1.7 8.6h147l-1.7-8.6z"/><path id="Fill-40" fill="#20a592" d="M551 114.6H407l.7-3.4.3-1.6h142l.3 1.6z"/><path id="Fill-42" class="st5" d="M565 207.3l-206.4 33.3-5.6-34.7 206.4-33.3z"/><path id="Fill-43" class="st5" d="M419.8 109.6h-75.7c-1.7 0-3.2 1.4-3.2 3s1.4 3 3.2 3h75.7c1.7 0 3.2-1.4 3.2-3s-1.4-3-3.2-3"/><path id="Fill-44" class="st5" d="M505.3 53.6h-89.2c-2.9 0-5.6 1.7-6.9 4.3L381 115.6h99.8l27.8-56.7c1.2-2.5-.6-5.3-3.3-5.3"/><path id="Fill-45" class="st4" d="M452.5 86.9c-1.1 2.3-3.5 3.3-5.4 2.3s-2.7-3.6-1.6-5.9c1.1-2.3 3.5-3.3 5.4-2.3 2 1 2.7 3.6 1.6 5.9"/><path id="Fill-46" class="st4" d="M281.3 104.6c-3.7 0-6.7 3-6.7 6.7L177 659.9a6.7 6.7 0 0013.4 0L288 111.3c0-3.7-3-6.7-6.7-6.7"/><path id="Fill-47" class="st4" d="M388.3 104.6c-3.7 0-6.7 3-6.7 6.7L284 659.9a6.7 6.7 0 0013.4 0L395 111.3c0-3.7-3-6.7-6.7-6.7"/><path id="Fill-48" class="st4" d="M199 564.6h110v-15H199z"/><path id="Fill-49" class="st4" d="M222 446.6h110v-15H222z"/><path id="Fill-50" class="st4" d="M245 328.6h110v-15H245z"/><path id="Fill-51" class="st4" d="M267 210.6h110v-15H267z"/><path id="Fill-52" class="st3" d="M797.5 481.6s1.6 6.4 1.4 7.9c-.2 1.5-4.7 11.1-4.7 11.1s-8.5-3-9.2-6.9c-.8-3.9 8.2-12.1 8.2-12.1h4.3z"/><path id="Fill-53" class="st4" d="M807 495.3l-28 167.3-28-4.7 28-167.3z"/><path id="Fill-54" class="st3" d="M792.5 483.1s1.7 4.9-1.4 6.6c-3.1 1.6-3.8 2.2-3.8 2.2s-1.3 4.9-2.5 4.8c-1.3-.1-1-6.8 0-7.8s5.7-8.2 5.7-8.2l2 2.4z"/><path id="Fill-55" d="M732.3 386.3c3.6-3.5 7.8-10.5 12.7-9.7 5.4.9 22.9 7.8 38.2 26.1 20.6 24.5 22.1 77.9 15 80.5-1.7.6-6.6.6-8.9-.6-1.1-.6-1.9-1.7-1.9-3-.3-8.9-5.1-43.1-12.5-50.5-37.7-38-63.1-22.8-42.6-42.8" fill="#ef7154"/><path id="Fill-56" class="st5" d="M666 290.3l-32.9 11.3-11.1-33.7 32.9-11.3z"/><path id="Fill-57" class="st11" d="M747.3 505.7c-3.1 52.1-14.2 149.7-14.2 149.7-.1.1-.2.1-.3.1-6.9 2.4-7.6.1-9.9.3-1.1.1-11.7-114.9-8.2-184.2l34.1 7.9c3 19.7-.3 18.5-1.5 26.2"/><path id="Fill-58" class="st0" d="M765.4 510.5c-.3 40.7 34.3 115.1 38.4 130.7 1.2 4.2-4.5 8.4-6.6 9.4-1 .5-61.2-83.5-72.2-173l37.3 4c6.7 13.3 3.9 21.9 3.1 28.9"/><path id="Fill-59" class="st12" d="M757 381.6s-4.8-8.5-4.4-15.7c.4-7.1 0-11.3 0-11.3l-14.2 7.4-.4 17.9 19 1.7z"/><path id="Fill-60" class="st1" d="M717.3 398.8c-5.4 18.9-9.3 69.9-3.2 78.6 6.1 8.7 38.1 8.6 46.3 4.8 7.4-3.5-1.7-14.2 3.5-63.5.3-2.6-.1-5.2-.1-7.7 0-36.8-36-48.9-46.5-12.2"/><path id="Fill-61" class="st3" d="M743 329.2s-3.5.9-5.5 6.5c-3 8.8-2.9 6.7-7.2 15.6-.9 1.8-2.1 11-.9 14.9.7 2.4 6.3 4.2 6.3 4.2 2 .5 8.2 1.2 17-6.2 3.4-2.8 15.7-22 15.1-23.7s-16.4-17.9-24.8-11.3"/><path id="Fill-62" class="st0" d="M760.8 348.6s-5.8-.8-8.1-2.8c-2.4-1.9-15-10.2-16.3-15.5s2-8.7 2-8.7 2.6 2.4 6.2 3.3c4.9 1.3 26 4.5 25.5 17.8-.1.1-6.5 6.4-9.3 5.9"/><path id="Fill-63" class="st0" d="M749.5 341.7s-.8-.8.1 1.5c0 0-1.2 8.1-1.6 9.8-.3 1.4.7 2.5.7 2.5s.3-3 3.1-4.5c.5-.3 1.4-.3 1.9 0 .8.4 1.9 1.3 1.6 2.8-.2 1.2-1.1 2.3-2.2 3.2-1.8 1.5-2.4 3.9-1.5 6.1l.2.5s14.8-12.2 17.5-19.1c2.7-6.9-5.1-7.9-5.1-7.9l-14.7 5.1z"/><path id="Fill-64" class="st1" d="M756.9 381.9s6.6 10.5 7.1 28.7c0 0-35.4-31.3-30.5-36 0 0 15.2 3.1 23.4 7.3"/><path id="Fill-65" class="st11" d="M705.1 665.1s-1.3-.3 7.9-2.9c6.4-1.8 8.4-3.8 9.1-6.7h10.2s1.6 9.8 0 9.8-27.4.7-27.2-.2"/><path id="Fill-66" class="st11" d="M791.3 669.6s-1.4 1.1 2-8.3c2.4-6.5 3-12.6.9-14.9l9.2-6.7s4.5 9.7 3.5 11c-1 1.2-15 19.5-15.6 18.9"/><path id="Fill-67" class="st3" d="M656.8 303.6s-10.4-8.6-9.7-10.6 5.4-11.9 6.2-12.3c.8-.3 5.8-.1 6.3.8.5.8 8.6 8.8 8.5 10.6-.1 1.8-2.5 11.1-2.5 11.1l-8.8.4z"/><path id="Fill-68" class="st1" d="M732.2 399.9c-3.3 3.8-9.3 3.1-14 1.3-7.2-2.7-22.1-10.6-42.7-27.9-17.9-15-24.3-65.9-18.4-70.5 2.3-1.7 6.5-1.4 8.9-.4 1.2.5 2 1.6 2.2 2.8 1.1 8.8 11.8 36.7 16.6 42.9 7.1 9.3 25.9 19.1 46.9 25.5 14.4 4.4 10.1 15.2.5 26.3"/><path id="Fill-69" class="st12" d="M485 227.3s-.2-7.8 1-8.9c1.9-1.8 5.8-5.9 6.2-5.8s1.1 1.1.9 1.8-1.3 4-1.3 4l12.1-2s-1.9 5.5-4 7.6c-.6.6-8.4 7.6-8.4 7.6l-6.5-4.3z"/><path id="Fill-70" class="st12" d="M318 194.6s4.4-6.7 9-6.9c4.6-.3 13.5 2.4 14.5 3.5s1.5 4.5 1.5 4.5h-12.5l-12.5-1.1z"/><path id="Fill-71" class="st1" d="M346 274.6s-34.5-25-39.2-43c-4-15.4 7.1-37.9 11.5-36.9s9.7 8.3 9.7 8.3-3.4 8.5-1.8 15.3c4 16.4 37.6 28.8 37.6 28.8l5.2 7.4"/><path id="Fill-72" class="st11" d="M366.5 352s5.5 5.6-21.4 39.5c-28.5 53.4-39.7 148.1-39.7 148.1h-10.3s-3.1-148.1 31.8-199l39.6 11.4z"/><path id="Fill-73" class="st0" d="M364 335.9s-77.8-18.3-100.4-10.2c-14.1 5 3 97.9 3 97.9h9.5s7.3-52.3 5.3-66.8c-.7-5.1 23.1 17 54.6 16.7 15.9-.1 22.2-26.1 22.2-26.1l5.8-11.5z"/><path id="Fill-74" class="st0" d="M249.1 431.1s-1.3-.3 7.9-2.9c6.4-1.8 8.4-3.8 9.1-6.7h10.2s1.6 9.8 0 9.8-27.4.7-27.2-.2"/><path id="Fill-75" class="st11" d="M278.1 549.1s-1.3-.3 7.9-2.9c6.4-1.8 8.4-3.8 9.1-6.7h10.2s1.6 9.8 0 9.8-27.4.7-27.2-.2"/><path id="Fill-76" class="st12" d="M335 194.8s.1 1 .7 1.2 8 2.4 8.2 2.9c.1.5.3 2.5-.4 2.5s-11.7 1.5-12.3 1.2c-.6-.3-3.4 0-3.4 0l-9.7-7.7c-.1-.1 14.3-2.8 16.9-.1"/><path id="Fill-77" class="st1" d="M380.1 278c1 4.9 8 17.7 12.9 18.4 7.6 1.1 33.8-3.1 54.9-12.4 21.3-9.4 47.9-46.6 44.9-53.6-1.1-2.6-5-4.4-7.5-4.8-1.3-.2-1.4.4-2.2 1.5-5.3 7.2-29.3 26.1-36.5 29.2-10.8 4.6-31 5.5-52.4.7-14.7-3.3-17 6.6-14.1 21"/><path id="Fill-78" class="st12" d="M412.1 214.1s2.7 2.5 1.6 8.3c-1.7 9.1-.8 7.2-1.3 17-.1 2-3.6 10.6-6.5 13.3-1.8 1.7-7.7.5-7.7.5-2-.5-7.9-3-12-13.8-1.6-4.1-3.1-26.8-1.7-27.9s23.4-7.2 27.6 2.6"/><path id="Fill-79" class="st12" d="M376 257.1s5.5-16.4 8.8-22.9c3.2-6.5 5.6-2.2 5.6-2.2l7.7 8.7-3.7 20.8-18.4-4.4z"/><path id="Fill-80" class="st0" d="M381 243.6s-.2-26.2 3.1-31.8 20.4-5.4 29.2-.9c4.8 2.4 8.7 1.9 8.7 1.9s-.8 4.4-6 6.2c-5.1 1.7-8 7.1-8.3 8.4-.3 1.2-7.6 16.5-11.1 18.1-3.4 1.5-13.9 2-15.6-1.9"/><path id="Fill-81" class="st1" d="M415.3 286.1c-4.8 19-38.4 68.6-48.4 72.2-22.3 8-54.9-24.7-47.9-30.4 12.6-10.3 9.9-20.3 22.3-51.3 10.4-26 20.6-30.9 22.9-29.9 40.1 17.2 58.8 8.5 51.1 39.4"/><path id="Fill-82" class="st12" d="M404 235.4s0-4.6-1.9-4.7c-1.9-.2-3.8 7.9-2.8 8.9s2.7 1.1 2.7 1.1l2-5.3z"/></svg>