<svg version="1.1" id="Слой_1" xmlns="http://www.w3.org/2000/svg" x="0" y="0" viewBox="0 0 1073 936" xml:space="preserve"><style>.st0{fill:#a2f2e5}</style><path id="Fill-1" class="st0" d="M316.8 506.5c-4.1-9.9-13.8-16.9-25.1-16.9-8.2 0-15.5 3.7-20.5 9.4-6.8-15.6-22.3-26.4-40.4-26.4-6.4 0-12.4 1.4-17.9 3.8-9.2-14.6-25.4-24.4-43.9-24.4-26.9 0-49 20.5-51.6 46.8-5-5.6-12.2-9.2-20.3-9.2-11.4 0-21.1 7-25.1 16.9h244.8z"/><path id="Fill-4" class="st0" d="M940.9 423.9c-8.2 0-15.6 3.7-20.5 9.5-6.8-15.7-22.3-26.7-40.4-26.7-6.4 0-12.4 1.4-17.9 3.9-9.2-14.8-25.4-24.6-43.9-24.6-26.9 0-49 20.7-51.6 47.2-5-5.7-12.2-9.3-20.3-9.3-11.4 0-21.1 7.1-25.1 17.1h245c-4.3-10-14-17.1-25.3-17.1"/><path id="Fill-4_1_" class="st0" d="M987.1 217.9c-5.8 0-11 2.6-14.6 6.8-4.9-11.1-15.9-18.9-28.7-18.9-4.5 0-8.8 1-12.7 2.7-6.5-10.5-18-17.5-31.2-17.5-19.1 0-34.8 14.7-36.6 33.5-3.5-4-8.7-6.6-14.4-6.6-8.1 0-15 5-17.9 12.1h174c-2.9-7.1-9.8-12.1-17.9-12.1"/><path id="Fill-4_2_" class="st0" d="M75.5 65.9c12.9 0 24.4 4.6 32.3 11.8 10.7-19.4 35.1-33 63.5-33 10 0 19.5 1.7 28.1 4.8 14.4-18.3 39.9-30.4 69-30.4 42.3 0 77 25.6 81.1 58.4 7.8-7 19.2-11.5 32-11.5 17.9 0 33.1 8.7 39.5 21.1H36c6.4-12.5 21.6-21.2 39.5-21.2"/><path id="Fill-41" d="M916 314c0 8.8-7.2 16-16 16s-16-7.2-16-16 7.2-16 16-16 16 7.2 16 16" fill="#ef7154"/></svg>