<svg class="icons-sprite" xmlns="http://www.w3.org/2000/svg">
  <symbol id="bag_icon" viewBox="0 0 512 452">
    <path d="M354 60.047v-.535C354 26.695 327.305 0 294.488 0h-76.976C184.695 0 158 26.695 158 59.512v.535H0v391.902h512V60.047H354zm-166-.535C188 43.238 201.238 30 217.512 30h76.976C310.762 30 324 43.238 324 59.512v.535H188v-.535zm294 30.535v241.832h-30.047v-30.024H329.285v30.024h-146.57v-30.024H60.047v30.024H30V90.047h452zm-60.047 241.808v30.047h-62.668v-30.047h62.668zm-269.238 0v30.047H90.047v-30.047h62.668zM30 421.953v-60.07h30.047v30.02h122.668v-30.02h146.57v30.02h122.668v-30.02H482v60.07H30z"/>
  </symbol>
  <symbol id="book_icon" viewBox="0 0 512 512">
    <path d="M481.999 273.586v-47.58c0-8.284-6.716-15-15-15-30.988 0-59.878 2.615-87.173 7.955-15.911-15.365-35.308-26.513-56.313-32.606 22.904-19.277 37.486-48.14 37.486-80.349 0-58.449-47.103-106-105-106s-105 47.551-105 106c0 32.209 14.582 61.072 37.487 80.348-21.005 6.094-40.402 17.242-56.313 32.606-27.295-5.339-56.185-7.955-87.173-7.955-8.284 0-15 6.716-15 15v47.58c-17.459 6.192-30 22.865-30 42.42v30c0 19.555 12.541 36.228 30 42.42v47.58c0 8.284 6.716 15 15 15 78.429 0 142.832 18.583 202.68 58.481 5.015 3.342 11.621 3.35 16.641 0 59.848-39.898 124.25-58.481 202.68-58.481 8.284 0 15-6.716 15-15v-47.58c17.459-6.192 30-22.865 30-42.42v-30c-.002-19.554-12.543-36.227-30.002-42.419zm-301-167.58c0-41.907 33.645-76 75-76s75 34.093 75 76c0 41.355-33.645 75-75 75s-75-33.645-75-75zm-136 255c-8.271 0-15-6.729-15-15v-30c0-8.271 6.729-15 15-15s15 6.729 15 15v30c0 8.271-6.729 15-15 15zm196 109.085c-54.453-31.141-112.886-46.88-181-48.869v-32.796c17.459-6.192 30-22.865 30-42.42v-30c0-19.555-12.541-36.228-30-42.42v-32.368c70.481 2.023 127.134 18.62 181 52.916v175.957zm15-201.946c-27.686-17.469-56.504-30.77-87.268-40.117 16.904-10.986 36.803-17.022 57.268-17.022h60c20.465 0 40.364 6.036 57.268 17.022-30.764 9.347-59.583 22.648-87.268 40.117zm196 153.077c-68.113 1.989-126.548 17.732-181 48.871V294.146c53.867-34.299 110.516-50.906 181-52.928v32.368c-17.459 6.192-30 22.865-30 42.42v30c0 19.555 12.541 36.228 30 42.42v32.796zm30-75.216c0 8.271-6.729 15-15 15s-15-6.729-15-15v-30c0-8.271 6.729-15 15-15s15 6.729 15 15v30z"/>
  </symbol>
  <symbol id="callendar_icon" viewBox="0 0 65 58.6">
    <path d="M62.5 5.3h-8v-2c0-1.1-.9-2-2-2h-6c-1.1 0-2 .9-2 2v2h-24v-2c0-1.1-.9-2-2-2h-6c-1.1 0-2 .9-2 2v2h-8c-1.1 0-2 .9-2 2v48c0 1.1.9 2 2 2h60c1.1 0 2-.9 2-2v-48c0-1.1-.9-2-2-2zm-14 0h2v4h-2v-4zm-34 0h2v4h-2v-4zm46 48h-56v-44h6v2c0 1.1.9 2 2 2h6c1.1 0 2-.9 2-2v-2h24v2c0 1.1.9 2 2 2h6c1.1 0 2-.9 2-2v-2h6v44z"/><path d="M20.5 21.3h-8c-1.1 0-2 .9-2 2v8c0 1.1.9 2 2 2h8c1.1 0 2-.9 2-2v-8c0-1.1-.9-2-2-2zm-2 8h-4v-4h4v4zm18-8h-8c-1.1 0-2 .9-2 2v8c0 1.1.9 2 2 2h8c1.1 0 2-.9 2-2v-8c0-1.1-.9-2-2-2zm-2 8h-4v-4h4v4zm18-8h-8c-1.1 0-2 .9-2 2v8c0 1.1.9 2 2 2h8c1.1 0 2-.9 2-2v-8c0-1.1-.9-2-2-2zm-2 8h-4v-4h4v4zm-30 8h-8c-1.1 0-2 .9-2 2v8c0 1.1.9 2 2 2h8c1.1 0 2-.9 2-2v-8c0-1.1-.9-2-2-2zm-2 8h-4v-4h4v4zm18-8h-8c-1.1 0-2 .9-2 2v8c0 1.1.9 2 2 2h8c1.1 0 2-.9 2-2v-8c0-1.1-.9-2-2-2zm-2 8h-4v-4h4v4zm18-8h-8c-1.1 0-2 .9-2 2v8c0 1.1.9 2 2 2h8c1.1 0 2-.9 2-2v-8c0-1.1-.9-2-2-2zm-2 8h-4v-4h4v4z"/>
  </symbol>
  <symbol id="checkmark_icon" viewBox="0 0 34 25">
    <path stroke="currentColor" stroke-width="5" d="M32 2L13.42 21.09 2 10.432"/>
  </symbol>
  <symbol id="clock_icon" viewBox="0 0 40 40">
    <path d="M39.512 20c0 10.776-8.736 19.512-19.512 19.512S.488 30.776.488 20 9.224.488 20 .488c.163 0 .326.002.488.006v2.928A16.895 16.895 0 0020 3.415C10.84 3.415 3.415 10.84 3.415 20S10.84 36.585 20 36.585 36.585 29.16 36.585 20h2.927z"/><path d="M26.631 15.61l5.575-9.73h-5.865V2.927h9.757v2.645L30.505 15.61z"/><path stroke="currentColor" stroke-linecap="square" stroke-width="2" d="M19.024 9.268v13.659V9.268zm0 12.683H30.39 19.024z"/>
  </symbol>
  <symbol id="close_icon" viewBox="0 0 100 100">
    <path stroke="currentColor" stroke-width="6" d="M2 2l96 96M2 98L98 2"/>
  </symbol>
  <symbol id="copy_icon" viewBox="0 0 26 32">
    <g stroke="currentColor" stroke-width="2"><path d="M5.261 5.207H25V31H5.261z"/><path d="M1 25.783V1h18.521"/></g>
  </symbol>
  <symbol id="folder_icon" viewBox="0 0 512 512">
    <path d="M411 122V79.54L359.125 0H101v122H0v390h512V122H411zm-35.516-42H351V42.46L375.484 80zM321 30v80h60v132H194.215l-60-60H131V30h190zM30 152h71v30H30v-30zm452 330H30V212h91.785l60 60H482v210zm-71-240v-90h71v90h-71z"/>
  </symbol>
  <symbol id="handle_icon" viewBox="0 0 1000 1000">
    <path d="M560.8 191.3v246.9h245V315.8L990 500 805.8 684.2V558.9h-245v246.9h123.4L500 990 315.8 805.8h122.5V558.9h-245v124.4L10 500l183.3-183.3v121.5h245V191.3H318.6L500 10l181.4 181.3H560.8z"/>
  </symbol>
  <symbol id="investor_icon" viewBox="0 0 34 40">
    <path d="M23.227 17.343c2.23-1.792 3.657-4.523 3.657-7.577C26.884 4.38 22.45 0 17 0S7.116 4.38 7.116 9.766c0 3.054 1.427 5.785 3.657 7.577C4.683 18.341 0 24.022 0 30.86v7.97C0 39.474.53 40 1.186 40h31.628A1.18 1.18 0 0034 38.828V30.86c0-6.837-4.682-12.518-10.773-13.516zm-5.041 2.188v2.344h-2.372v-2.344h2.372zM15.6 24.22h2.8l1.253 6.19L17 32.61l-2.653-2.201 1.253-6.19zM9.488 9.766c0-4.093 3.37-7.422 7.512-7.422 4.142 0 7.512 3.33 7.512 7.422s-3.37 7.421-7.512 7.421c-4.142 0-7.512-3.329-7.512-7.421zm22.14 27.89H2.372V30.86c0-6.246 4.627-11.328 10.315-11.328h.755v3.4l-1.558 7.699c-.085.42.068.851.4 1.127l3.953 3.28a1.192 1.192 0 001.526 0l3.953-3.28c.332-.276.486-.708.4-1.127l-1.558-7.7v-3.399h.755c5.688 0 10.315 5.082 10.315 11.328v6.797z"/>
  </symbol>
  <symbol id="link_icon" viewBox="0 0 36 36">
    <path d="M15.425 26.98l-4.1 3.974c-1.7 1.648-4.453 1.648-6.151 0a4.123 4.123 0 010-5.96l8.201-7.95c1.699-1.645 4.452-1.645 6.15 0a1.483 1.483 0 002.05 0 1.375 1.375 0 000-1.986c-2.83-2.744-7.42-2.744-10.25 0l-8.202 7.949a6.872 6.872 0 000 9.934c2.83 2.745 7.42 2.745 10.252 0l4.1-3.974a1.375 1.375 0 000-1.987 1.483 1.483 0 00-2.05 0z"/><path d="M32.957 3.076a6.9 6.9 0 00-9.868 0l-4.734 4.811a1.434 1.434 0 000 2.006 1.38 1.38 0 001.973 0l4.735-4.811a4.14 4.14 0 015.92 0 4.301 4.301 0 010 6.014l-8.682 8.822a4.138 4.138 0 01-5.919 0 1.38 1.38 0 00-1.973 0 1.434 1.434 0 000 2.006 6.898 6.898 0 009.865 0l8.683-8.823c2.724-2.768 2.724-7.256 0-10.025z"/>
  </symbol>
  <symbol id="newspaper_icon" viewBox="0 0 48 48">
    <path d="M39.563 0H0v42.375A5.63 5.63 0 005.625 48h36.75A5.63 5.63 0 0048 42.375V22.594h-8.438V0zM5.624 45.188a2.817 2.817 0 01-2.813-2.813V2.812H36.75v39.563c0 1.024.276 1.984.757 2.813H5.625zm39.563-19.782v16.969a2.817 2.817 0 01-2.813 2.813 2.817 2.817 0 01-2.813-2.813V25.406h5.626z"/><path d="M5.625 16.969h28.313V5.625H5.625v11.344zm2.813-8.532h22.687v5.72H8.437v-5.72zM5.625 19.781h14.156v2.813H5.625zm16.969 0h11.344v2.813H22.594zM5.625 25.406h14.156v2.813H5.625zm16.969 0h11.344v2.813H22.594zM5.625 31.031h14.156v2.813H5.625zm0 5.625h14.156v2.813H5.625zm16.969 2.813h11.343V31.03H22.595v8.438zm2.812-5.625h5.719v2.812h-5.719v-2.812z"/>
  </symbol>
  <symbol id="pdf-link_icon" viewBox="0 0 31 40">
    <path d="M21.684 40H0V10.644L10.8 0h20.122v40h-9.238 9.237V22.266h-2.378V2.344h-16.06V12.3H2.378v25.355h10.069V40h9.236zM10.104 4L4.062 9.958h6.043V4z"/><path d="M8.565 17.37H5.348v6.584h2.253v-1.618h.964c1.861 0 3.045-.959 3.045-2.483s-1.184-2.483-3.045-2.483zm-.143 3.254h-.821v-1.542h.821c.62 0 .916.291.916.771 0 .48-.296.771-.916.771zm4.018-3.254v6.584h3.293c2.234 0 3.77-1.251 3.77-3.292s-1.536-3.292-3.77-3.292H12.44zm4.792 3.292c0 1.006-.65 1.562-1.594 1.562h-.945V19.1h.945c.945 0 1.594.555 1.594 1.56zm5.44 1.185h2.787v-1.674h-2.787v-1.129h3.179V17.37H20.42v6.584h2.252zM21.5 36.212l-1.92 1.877a2.068 2.068 0 01-2.879 0 1.96 1.96 0 010-2.815l3.84-3.755a2.068 2.068 0 012.879 0 .69.69 0 00.96 0 .653.653 0 000-.938 3.448 3.448 0 00-4.8 0l-3.839 3.753a3.266 3.266 0 000 4.692 3.447 3.447 0 004.8 0l1.92-1.877a.653.653 0 000-.938.69.69 0 00-.96 0z"/><path d="M30.005 24.957a3.453 3.453 0 00-4.806 0l-2.305 2.255a.654.654 0 000 .94.69.69 0 00.96 0l2.306-2.255a2.072 2.072 0 012.884 0c.796.779.796 2.04 0 2.82l-4.229 4.135a2.07 2.07 0 01-2.882 0 .69.69 0 00-.961 0 .654.654 0 000 .94 3.452 3.452 0 004.805 0l4.228-4.135a3.271 3.271 0 000-4.7z"/>
  </symbol>
  <symbol id="pdf_icon" viewBox="0 0 36 36">
    <path d="M35 13.569h-8.558V1H8.404L1 8.401V35h25.442v-5.068H35V13.569zM8.484 3.737v4.745H3.738l4.746-4.745zm15.965 29.27H2.993V10.475h7.484V2.992H24.45V13.57H5.65v16.363h18.8v3.076zm8.558-5.068H7.643V15.561h25.364V27.94z"/><path d="M11.963 23.047h1.16c1.586 0 2.877-1.357 2.877-3.024S14.71 17 13.123 17H10v9h1.963v-2.953zm0-3.985h1.16c.504 0 .914.431.914.961s-.41.961-.914.961h-1.16v-1.922zm15.867 3.985h2.519v-2.063H27.83v-1.922H31V17h-5v9h1.83zM23 22.961v-2.922C23 18.363 21.707 17 20.117 17H17v9h3.117C21.707 26 23 24.637 23 22.961zm-4.037-3.892h1.154c.508 0 .92.435.92.97v2.922c0 .535-.412.97-.92.97h-1.154v-4.862zM13 8h9v2h-9z"/>
  </symbol>
  <symbol id="resume_icon" viewBox="0 0 512 512">
    <path d="M414.007 148.75c5.522 0 10-4.477 10-10V30c0-16.542-13.458-30-30-30h-364c-16.542 0-30 13.458-30 30v452c0 16.542 13.458 30 30 30h364c16.542 0 30-13.458 30-30v-73.672c0-5.523-4.478-10-10-10s-10 4.477-10 10V482c0 5.514-4.486 10-10 10h-364c-5.514 0-10-4.486-10-10V30c0-5.514 4.486-10 10-10h364c5.514 0 10 4.486 10 10v108.75c0 5.523 4.478 10 10 10z"/><path d="M212.007 54c-50.729 0-92 41.271-92 92 0 26.317 11.11 50.085 28.882 66.869.333.356.687.693 1.074 1 16.371 14.979 38.158 24.13 62.043 24.13 23.885 0 45.672-9.152 62.043-24.13a9.993 9.993 0 001.074-1c17.774-16.784 28.884-40.552 28.884-66.869 0-50.729-41.271-92-92-92zm0 164c-16.329 0-31.399-5.472-43.491-14.668 8.789-15.585 25.19-25.332 43.491-25.332s34.702 9.747 43.491 25.332C243.405 212.528 228.336 218 212.007 218zm-16-76v-6.5c0-8.822 7.178-16 16-16s16 7.178 16 16v6.5c0 8.822-7.178 16-16 16s-16-7.178-16-16zm73.94 46.683a69.375 69.375 0 00-29.463-24.697c4.71-6.087 7.523-13.712 7.523-21.986v-6.5c0-19.851-16.149-36-36-36s-36 16.149-36 36v6.5c0 8.274 2.813 15.899 7.523 21.986a69.375 69.375 0 00-29.463 24.697c-8.829-11.953-14.06-26.716-14.06-42.683 0-39.701 32.299-72 72-72s72 32.299 72 72c0 15.967-5.231 30.73-14.06 42.683zM266.007 438h-54c-5.522 0-10 4.477-10 10s4.478 10 10 10h54c5.522 0 10-4.477 10-10s-4.478-10-10-10zm0-56h-142c-5.522 0-10 4.477-10 10s4.478 10 10 10h142c5.522 0 10-4.477 10-10s-4.478-10-10-10zm0-56h-142c-5.522 0-10 4.477-10 10s4.478 10 10 10h142c5.522 0 10-4.477 10-10s-4.478-10-10-10zM88.366 272.93a10.077 10.077 0 00-7.079-2.93c-2.631 0-5.211 1.07-7.07 2.93a10.076 10.076 0 00-2.93 7.07c0 2.63 1.069 5.21 2.93 7.07a10.092 10.092 0 007.07 2.93c2.64 0 5.21-1.07 7.079-2.93a10.077 10.077 0 002.931-7.07c0-2.63-1.07-5.21-2.931-7.07zm0 56a10.095 10.095 0 00-7.079-2.93c-2.631 0-5.2 1.07-7.07 2.93a10.076 10.076 0 00-2.93 7.07c0 2.63 1.069 5.21 2.93 7.07a10.092 10.092 0 007.07 2.93c2.64 0 5.21-1.07 7.079-2.93a10.077 10.077 0 002.931-7.07c0-2.63-1.07-5.21-2.931-7.07zm0 56a10.095 10.095 0 00-7.079-2.93c-2.631 0-5.2 1.07-7.07 2.93a10.076 10.076 0 00-2.93 7.07c0 2.63 1.069 5.21 2.93 7.07a10.072 10.072 0 007.07 2.93c2.64 0 5.22-1.07 7.079-2.93a10.077 10.077 0 002.931-7.07c0-2.63-1.07-5.21-2.931-7.07zM266.007 270h-142c-5.522 0-10 4.477-10 10s4.478 10 10 10h142c5.522 0 10-4.477 10-10s-4.478-10-10-10zm224.995-139.68c-9.715-5.609-21.033-7.099-31.871-4.196-10.836 2.904-19.894 9.854-25.502 19.569L307.787 363.656a10.016 10.016 0 00-1.278 3.891l-8.858 79.344a10.004 10.004 0 009.937 11.11 9.99 9.99 0 005.931-1.948l64.284-47.344a9.983 9.983 0 002.73-3.052l125.841-217.963c11.58-20.056 4.684-45.794-15.372-57.374zM320.063 426.394l4.626-41.432 28.942 16.71-33.568 24.722zm48.15-39.398l-38.105-22 100.985-174.91 38.105 22-100.985 174.91zm120.841-209.303l-9.857 17.073-38.105-22 9.857-17.073a21.855 21.855 0 0113.358-10.25 21.85 21.85 0 0116.694 2.198 21.855 21.855 0 0110.25 13.358 21.856 21.856 0 01-2.197 16.694z"/>
  </symbol>
  <symbol id="studying_icon" viewBox="0 0 512 450">
    <path d="M496.999 240.989H282.421a44.79 44.79 0 002.58-15c0-24.813-20.187-45-45-45h-45.249l-17.764-60.076c.998.05 2.002.076 3.013.076 33.084 0 60-26.916 60-60s-26.916-60-60-60-60 26.916-60 60a59.618 59.618 0 008.355 30.492c-19.289 2.913-34.624 17.778-37.798 37.424L61.251 275.451c-2.078 8.62-1.564 17.439 1.316 25.538H45.003c-8.271 0-15-6.729-15-15V105.99c0-8.284-6.716-15-15-15-8.284 0-15 6.716-15 15v179.999c0 18.321 11.011 34.108 26.758 41.122L.451 432.35c-2.009 8.037 2.877 16.181 10.914 18.19 8.044 2.009 16.182-2.882 18.19-10.914l27.159-108.637h81.576l27.159 108.637c2.009 8.037 10.151 12.923 18.19 10.914 8.037-2.009 12.923-10.153 10.914-18.19l-25.341-101.361h35.654l21.478 85.925c6.128 24.461 30.792 38.714 54.572 32.734 24.065-6.011 38.754-30.491 32.744-54.578l-30.001-120.003a45.45 45.45 0 00-1.233-4.078H361v164.999c0 8.284 6.716 15 15 15 8.284 0 15-6.716 15-15V270.989h105.999c8.284 0 15-6.716 15-15 0-8.284-6.716-15-15-15zM180.002 30.991c16.542 0 30 13.458 30 30s-13.458 30-30 30-30-13.458-30-30 13.458-30 30-30zm-49.401 90.678c6.434-1.993 13.7.575 17.32 6.735l21.242 71.839a15 15 0 0014.384 10.747h56.455v-.001c8.271 0 15 6.729 15 15s-6.729 15-15 15h-74.999c-5.423 0-10.326-2.855-13-7.508-31.926-95.778-29.723-89.388-30.419-90.781-4.178-8.355.266-18.364 9.017-21.031zM284.554 402.34c2.005 8.034-2.888 16.199-10.931 18.208-7.878 1.983-16.123-2.722-18.176-10.917l-24.316-97.279a15 15 0 00-14.552-11.363H105.003c-9.75 0-16.92-9.179-14.554-18.642.132-.53 17.236-86.094 17.343-86.63l16.145 48.434c.884 2.649 3.214 6.3 4.863 8.547a14.994 14.994 0 00-.374 3.291c0 8.284 6.716 15 15 15h96.576a14.984 14.984 0 0114.553 11.359l29.999 119.992z"/>
  </symbol>
  <symbol id="symbol-arrow" viewBox="0 0 13.3 21.1">
    <path d="M13.3 5.6L6.6 0 0 5.6l1.3 1.5 4.3-3.7v17.7h2V3.4L12 7.1z"/>
  </symbol>
  <symbol id="symbol_dropdown" viewBox="0 0 22.4 14.3">
    <path d="M11.1 8.3L3.5.7c-.6-.6-1.4-.6-2 0l-1.1 1c-.6.6-.6 1.4 0 2L11 14.3l.1.1.4-.3L22 3.5c.6-.6.6-1.4 0-2L20.9.4c-.6-.6-1.4-.6-2 0l-7.8 7.9z"/>
  </symbol>
  <symbol id="user_icon" viewBox="0 0 36 36">
    <path d="M30.02 22.98a16.92 16.92 0 00-6.46-4.053 9.823 9.823 0 004.268-8.099C27.828 5.408 23.42 1 18 1c-5.42 0-9.828 4.409-9.828 9.828a9.828 9.828 0 004.267 8.1 16.937 16.937 0 00-6.46 4.051A16.898 16.898 0 001 35h2.656c0-7.91 6.435-14.344 14.344-14.344 7.91 0 14.344 6.435 14.344 14.344H35c0-4.54-1.768-8.81-4.98-12.02zM18 18a7.18 7.18 0 01-7.172-7.172c0-3.954 3.217-7.172 7.172-7.172a7.18 7.18 0 017.172 7.172A7.18 7.18 0 0118 18z"/>
  </symbol>
</svg>