<svg xmlns="http://www.w3.org/2000/svg" width="206" height="35" viewBox="0 0 206 35"><g fill="none"><path fill="#44CEBE" d="M0 7.813h8.776c2.441 0 4.343.68 5.595 1.933 1.07 1.062 1.646 2.56 1.646 4.412 0 3.078-1.673 5.012-4.114 5.901l4.69 6.81h-4.937l-4.169-6.092H4.224v6.098H0V7.812zm8.348 9.375c2.056 0 3.236-1.12 3.236-2.827 0-1.847-1.262-2.799-3.318-2.799H4.07v5.626h4.278zm60.84 1.526V7.813h4.266v10.792c0 3.107 1.578 4.712 4.182 4.712 2.603 0 4.193-1.553 4.193-4.576V7.813h4.265v10.765c0 5.775-3.296 8.61-8.502 8.61-5.207 0-8.404-2.862-8.404-8.474zM90.477 7.813h4.529l5.02 8.06 5.02-8.06h4.528v19.062H105.4V14.43l-5.374 8.142h-.109l-5.32-8.06v12.361h-4.12zm23.803 0h14.257v3.731h-10.126v3.858h8.911v3.738h-8.911v4.004h10.261v3.731h-14.401zM49.152 27.188v-3.239l10.676-12.4H49.485V7.813h15.833v3.238l-10.676 12.4h10.676v3.737z"/><path fill="#FF8C69" d="M27.322 15.372h20.036v4.075H27.322zm0-7.594h12.617v4.075H27.322zm0 15.184h12.617v4.075H27.322z"/><path fill="#FF8C69" d="M47.358 0v3.703H23.984v27.41h23.374v3.703H20.271V0z"/><path fill="#FFF" d="M131.49 26.875v-2.813h2.504v2.813h-2.505zm11.23.313c-4.142 0-7.16-3.248-7.16-7.188 0-3.887 3.045-7.188 7.213-7.188 4.142 0 7.187 3.248 7.187 7.188 0 3.887-3.072 7.188-7.24 7.188zm.053-1.875c2.945 0 4.996-2.373 4.996-5.3 0-2.926-2.182-5.326-5.049-5.326-2.945 0-4.97 2.4-4.97 5.326 0 2.927 2.157 5.3 5.023 5.3zm9.379 1.562v-13.77h2.08v2.397c.918-1.491 2.377-2.69 4.781-2.69 3.377 0 5.349 2.238 5.349 5.514v8.549h-2.08v-8.043c0-2.557-1.405-4.155-3.863-4.155-2.404 0-4.187 1.731-4.187 4.314v7.884h-2.08zm15.34 0V7.187h2.192v19.688h-2.192zm5.323-17.188V7.5h2.504v2.188h-2.504zm.313 17.188v-13.75h2.191v13.75h-2.191zm5.322 0v-13.77h2.08v2.397c.918-1.491 2.377-2.69 4.781-2.69 3.377 0 5.349 2.238 5.349 5.514v8.549h-2.08v-8.043c0-2.557-1.405-4.155-3.863-4.155-2.404 0-4.187 1.731-4.187 4.314v7.884h-2.08zm16.498-6.05c.296 2.902 2.447 4.579 4.894 4.579 1.91 0 3.254-.772 4.383-1.943l1.291 1.144c-1.398 1.544-3.092 2.582-5.727 2.582-3.819 0-6.938-2.901-6.938-7.187 0-3.993 2.823-7.188 6.669-7.188 4.114 0 6.48 3.248 6.48 7.294 0 .187 0 .4-.027.72h-11.025zm-.219-1.762h9.08c-.246-2.533-1.718-4.688-4.5-4.688-2.426 0-4.28 1.994-4.58 4.688z"/></g></svg>