<svg xmlns="http://www.w3.org/2000/svg" width="235" height="40" viewBox="0 0 235 40"><g fill="none"><path fill="#2B3A45" d="M0 8.929h10.012c2.784 0 4.954.778 6.382 2.21 1.22 1.213 1.878 2.925 1.878 5.042 0 3.517-1.909 5.727-4.693 6.744l5.35 7.782h-5.632L8.54 23.745H4.818v6.97H0V8.928zm9.523 10.714c2.346 0 3.691-1.28 3.691-3.23 0-2.111-1.439-3.199-3.785-3.199H4.643v6.429h4.88zm69.406 1.744V8.93h4.865v12.334c0 3.55 1.801 5.386 4.77 5.386 2.97 0 4.785-1.776 4.785-5.23V8.928h4.865v12.303c0 6.6-3.76 9.84-9.7 9.84-5.939 0-9.585-3.271-9.585-9.685zm24.285-12.458h5.167l5.726 9.212 5.727-9.212H125v21.785h-4.762V16.491l-6.131 9.306h-.124l-6.069-9.212v14.127h-4.7zm27.153 0h16.265v4.264H135.08v4.409h10.166v4.272H135.08v4.576h11.706v4.264h-16.429z"/><path fill="#FFF" d="M31.168 17.568h22.857v4.657H31.168zm0-8.679h14.393v4.657H31.168zm0 17.354h14.393V30.9H31.168z"/><path fill="#FFF" d="M54.025 0v4.232H27.361v31.325h26.664v4.232h-30.9V0z"/><path fill="#2B3A45" d="M56.071 31.071V27.37L68.25 13.199H56.451v-4.27h18.062v3.701L62.335 26.801h12.178v4.27z"/><path fill="#FFF" d="M150 30.714V27.5h2.857v3.214H150zm12.811.357c-4.724 0-8.168-3.711-8.168-8.214 0-4.442 3.475-8.214 8.23-8.214 4.724 0 8.198 3.711 8.198 8.214 0 4.442-3.505 8.214-8.26 8.214zm.061-2.142c3.36 0 5.7-2.712 5.7-6.057 0-3.344-2.49-6.086-5.76-6.086-3.36 0-5.67 2.742-5.67 6.086 0 3.345 2.46 6.057 5.73 6.057zm10.7 1.785V14.978h2.372v2.74c1.048-1.705 2.712-3.075 5.455-3.075 3.851 0 6.101 2.557 6.101 6.3v9.771h-2.373v-9.192c0-2.922-1.602-4.748-4.406-4.748-2.743 0-4.777 1.978-4.777 4.93v9.01h-2.373zm17.5 0v-22.5h2.5v22.5h-2.5zm6.07-19.643v-2.5H200v2.5h-2.857zm.358 19.643V15h2.5v15.714h-2.5zm6.071 0V14.978h2.373v2.74c1.048-1.705 2.712-3.075 5.455-3.075 3.851 0 6.101 2.557 6.101 6.3v9.771h-2.373v-9.192c0-2.922-1.602-4.748-4.406-4.748-2.743 0-4.777 1.978-4.777 4.93v9.01h-2.373zm18.822-6.914c.337 3.316 2.791 5.233 5.582 5.233 2.178 0 3.712-.882 5-2.22l1.473 1.307c-1.595 1.765-3.528 2.951-6.534 2.951-4.356 0-7.914-3.316-7.914-8.214 0-4.563 3.22-8.214 7.607-8.214 4.694 0 7.393 3.711 7.393 8.336 0 .213 0 .456-.03.821h-12.577zm-.25-2.014H232.5c-.28-2.894-1.96-5.357-5.132-5.357-2.768 0-4.883 2.278-5.225 5.357z"/></g></svg>