<svg xmlns="http://www.w3.org/2000/svg" width="15" height="15" viewBox="0 0 15 15">
    <g fill="none" fill-rule="evenodd">
        <g fill="#44CEBE" fill-rule="nonzero">
            <g>
                <g>
                    <path d="M34.5 93c4.142 0 7.5 3.358 7.5 7.5 0 4.142-3.358 7.5-7.5 7.5-4.142 0-7.5-3.358-7.5-7.5 0-4.142 3.358-7.5 7.5-7.5zm0 1.875c-3.107 0-5.625 2.518-5.625 5.625s2.518 5.625 5.625 5.625 5.625-2.518 5.625-5.625-2.518-5.625-5.625-5.625zm.938 1.875v2.958h2.493v1.875h-4.368V96.75h1.874z" transform="translate(-248 -5269) translate(221 5055) translate(0 121)"/>
                </g>
            </g>
        </g>
    </g>
</svg>
