<?xml version="1.0" standalone="no"?>
<!DOCTYPE svg PUBLIC "-//W3C//DTD SVG 20010904//EN"
 "http://www.w3.org/TR/2001/REC-SVG-20010904/DTD/svg10.dtd">
<svg version="1.0" xmlns="http://www.w3.org/2000/svg"
 width="512.000000pt" height="512.000000pt" viewBox="0 0 512.000000 512.000000"
 preserveAspectRatio="xMidYMid meet">

<g transform="translate(0.000000,512.000000) scale(0.100000,-0.100000)"
fill="#000000" stroke="none">
<path d="M1315 5108 c-54 -29 -55 -31 -55 -334 0 -268 1 -282 20 -307 27 -34
76 -47 182 -47 l87 0 3 -462 4 -463 27 -98 c81 -303 290 -551 563 -672 95 -42
134 -90 134 -165 0 -75 -39 -123 -134 -165 -273 -121 -482 -369 -563 -672
l-27 -98 -4 -462 -3 -463 -87 0 c-106 0 -155 -13 -182 -47 -19 -25 -20 -39
-20 -307 0 -304 1 -306 57 -335 31 -16 2455 -16 2486 0 56 29 57 31 57 335 0
268 -1 282 -20 307 -27 34 -76 47 -182 47 l-87 0 -3 463 -4 462 -27 98 c-81
303 -290 551 -563 672 -95 42 -134 90 -134 165 0 75 39 123 134 165 273 121
482 369 563 672 l27 98 4 463 3 462 87 0 c106 0 155 13 182 47 19 25 20 39 20
307 0 304 -1 306 -57 335 -31 16 -2459 15 -2488 -1z m2345 -333 l0 -145 -1100
0 -1100 0 0 145 0 145 1100 0 1100 0 0 -145z m-293 -802 c-4 -412 -6 -454 -25
-523 -39 -145 -98 -251 -197 -359 -70 -74 -134 -119 -272 -190 -111 -57 -164
-106 -202 -186 -44 -93 -44 -217 0 -310 38 -80 91 -129 202 -186 138 -71 202
-116 272 -190 99 -108 158 -214 197 -359 19 -69 21 -111 25 -522 l5 -448 -812
0 -812 0 5 448 c4 411 6 453 25 522 39 145 98 251 197 359 70 74 134 119 272
190 111 57 164 106 202 186 44 93 44 217 0 310 -38 80 -91 129 -202 186 -138
71 -202 116 -272 190 -99 108 -158 214 -197 359 -19 69 -21 111 -25 523 l-5
447 812 0 812 0 -5 -447z m293 -3628 l0 -145 -1100 0 -1100 0 0 145 0 145
1100 0 1100 0 0 -145z"/>
<path d="M1873 3875 c-38 -16 -53 -42 -53 -93 0 -69 42 -92 242 -132 315 -65
681 -65 996 0 200 40 242 63 242 132 0 52 -15 77 -54 93 -28 12 -43 12 -102
-1 -291 -64 -513 -83 -737 -66 -152 12 -283 31 -387 57 -94 22 -114 24 -147
10z"/>
<path d="M2494 2227 c-21 -18 -28 -35 -32 -75 -3 -41 -8 -52 -22 -52 -63 0
-165 -82 -201 -163 -21 -46 -24 -67 -24 -177 0 -97 4 -136 18 -172 24 -62 111
-143 175 -161 l47 -14 3 -143 c3 -143 3 -144 -18 -125 -11 10 -23 34 -26 54
-13 71 -62 110 -122 96 -87 -19 -102 -138 -32 -249 32 -50 102 -100 162 -117
35 -9 38 -13 38 -44 0 -47 19 -84 51 -101 75 -39 149 11 149 101 0 31 3 35 38
44 60 17 130 67 162 117 39 62 53 138 48 256 -4 79 -10 107 -32 152 -34 69
-93 121 -163 143 l-53 17 0 138 c0 90 4 138 11 138 17 0 39 -66 39 -120 0 -63
21 -96 69 -111 51 -15 97 8 118 59 20 48 12 152 -17 221 -34 78 -137 161 -200
161 -14 0 -19 11 -22 52 -7 65 -39 98 -98 98 -26 0 -48 -8 -66 -23z m-34 -474
l0 -137 -22 21 c-29 30 -38 160 -15 216 29 67 37 45 37 -100z m241 -400 c6
-19 9 -68 7 -109 -3 -60 -8 -78 -26 -96 l-22 -22 0 136 c0 116 2 137 15 132 8
-3 19 -21 26 -41z"/>
</g>
</svg>
